<svg width="176" height="27" viewBox="0 0 176 27" fill="none" xmlns="http://www.w3.org/2000/svg">
<ellipse cx="13.5952" cy="1.47514" rx="0.938136" ry="0.931286" fill="white"/>
<ellipse cx="23.7807" cy="17.9722" rx="0.938136" ry="0.931286" fill="white"/>
<ellipse cx="3.1417" cy="18.7705" rx="0.938136" ry="0.931286" fill="white"/>
<ellipse cx="16.2756" cy="1.47514" rx="0.938136" ry="0.931286" fill="white"/>
<ellipse cx="22.7085" cy="20.633" rx="0.938136" ry="0.931286" fill="white"/>
<ellipse cx="1.8015" cy="16.3757" rx="0.938136" ry="0.931286" fill="white"/>
<ellipse cx="14.8014" cy="4.0029" rx="0.804117" ry="0.798245" fill="white"/>
<ellipse cx="20.9663" cy="18.1053" rx="0.804117" ry="0.798245" fill="white"/>
<ellipse cx="4.34788" cy="16.2427" rx="0.804117" ry="0.798245" fill="white"/>
<ellipse cx="18.956" cy="2.27345" rx="0.670097" ry="0.665204" fill="white"/>
<ellipse cx="0.997389" cy="13.7149" rx="0.670097" ry="0.665204" fill="white"/>
<ellipse cx="17.3478" cy="4.40208" rx="0.670097" ry="0.665204" fill="white"/>
<ellipse cx="3.67777" cy="13.981" rx="0.670097" ry="0.665204" fill="white"/>
<ellipse cx="21.1003" cy="3.33772" rx="0.670097" ry="0.665204" fill="white"/>
<ellipse cx="0.729355" cy="11.0541" rx="0.670097" ry="0.665204" fill="white"/>
<ellipse cx="21.1003" cy="22.4956" rx="0.670097" ry="0.665204" fill="white"/>
<ellipse cx="19.6261" cy="5.59942" rx="0.536078" ry="0.532163" fill="white"/>
<ellipse cx="3.27572" cy="11.4532" rx="0.536078" ry="0.532163" fill="white"/>
<ellipse cx="19.6261" cy="20.2339" rx="0.536078" ry="0.532163" fill="white"/>
<ellipse cx="16.4096" cy="6.66379" rx="0.536078" ry="0.532163" fill="white"/>
<ellipse cx="5.95611" cy="13.5819" rx="0.536078" ry="0.532163" fill="white"/>
<ellipse cx="18.0178" cy="18.3713" rx="0.536078" ry="0.532163" fill="white"/>
<ellipse cx="19.09" cy="7.72809" rx="0.536078" ry="0.532163" fill="white"/>
<ellipse cx="5.68807" cy="10.921" rx="0.536078" ry="0.532163" fill="white"/>
<ellipse cx="15.3375" cy="22.8947" rx="0.536078" ry="0.532163" fill="white"/>
<ellipse cx="16.1416" cy="20.5" rx="0.536078" ry="0.532163" fill="white"/>
<ellipse cx="21.5024" cy="7.19592" rx="0.536078" ry="0.532163" fill="white"/>
<ellipse cx="4.07984" cy="9.0585" rx="0.536078" ry="0.532163" fill="white"/>
<ellipse cx="13.7292" cy="25.5556" rx="0.536078" ry="0.532163" fill="white"/>
<ellipse cx="17.7498" cy="21.8304" rx="0.536078" ry="0.532163" fill="white"/>
<ellipse cx="23.1106" cy="5.33331" rx="0.536078" ry="0.532163" fill="white"/>
<ellipse cx="1.39944" cy="8.52633" rx="0.536078" ry="0.532163" fill="white"/>
<ellipse cx="18.822" cy="23.9591" rx="0.536078" ry="0.532163" fill="white"/>
<ellipse cx="21.9044" cy="16.6418" rx="0.134019" ry="0.133041" fill="white"/>
<ellipse cx="11.987" cy="3.86992" rx="0.134019" ry="0.133041" fill="white"/>
<ellipse cx="6.6262" cy="18.7705" rx="0.134019" ry="0.133041" fill="white"/>
<ellipse cx="25.2549" cy="15.1784" rx="0.268039" ry="0.266082" fill="white"/>
<ellipse cx="10.7808" cy="6.3977" rx="0.268039" ry="0.266082" fill="white"/>
<ellipse cx="11.5849" cy="1.34213" rx="0.268039" ry="0.266082" fill="white"/>
<ellipse cx="8.10041" cy="20.7661" rx="0.268039" ry="0.266082" fill="white"/>
<ellipse cx="22.8426" cy="14.3802" rx="0.268039" ry="0.266082" fill="white"/>
<ellipse cx="9.44062" cy="4.00296" rx="0.268039" ry="0.266082" fill="white"/>
<ellipse cx="4.88395" cy="20.5" rx="0.268039" ry="0.266082" fill="white"/>
<ellipse cx="20.1622" cy="14.114" rx="0.268039" ry="0.266082" fill="white"/>
<ellipse cx="9.44062" cy="18.6374" rx="0.268039" ry="0.266082" fill="white"/>
<ellipse cx="20.5642" cy="11.8524" rx="0.402058" ry="0.399123" fill="white"/>
<ellipse cx="8.50248" cy="7.32899" rx="0.402058" ry="0.399123" fill="white"/>
<ellipse cx="7.16228" cy="5.20027" rx="0.402058" ry="0.399123" fill="white"/>
<ellipse cx="8.50248" cy="24.0921" rx="0.402058" ry="0.399123" fill="white"/>
<ellipse cx="11.4509" cy="19.8348" rx="0.402058" ry="0.399123" fill="white"/>
<ellipse cx="23.2446" cy="11.8524" rx="0.402058" ry="0.399123" fill="white"/>
<ellipse cx="6.6262" cy="2.53947" rx="0.402058" ry="0.399123" fill="white"/>
<ellipse cx="10.1107" cy="21.9635" rx="0.402058" ry="0.399123" fill="white"/>
<ellipse cx="25.657" cy="12.6506" rx="0.402058" ry="0.399123" fill="white"/>
<ellipse cx="8.77052" cy="1.74122" rx="0.402058" ry="0.399123" fill="white"/>
<ellipse cx="6.6262" cy="22.7617" rx="0.402058" ry="0.399123" fill="white"/>
<ellipse cx="25.5229" cy="9.85672" rx="0.536078" ry="0.532163" fill="white"/>
<ellipse cx="12.6571" cy="22.6287" rx="0.536078" ry="0.532163" fill="white"/>
<ellipse cx="22.8426" cy="9.32458" rx="0.536078" ry="0.532163" fill="white"/>
<ellipse cx="5.15199" cy="6.92984" rx="0.536078" ry="0.532163" fill="white"/>
<ellipse cx="11.0489" cy="25.0234" rx="0.536078" ry="0.532163" fill="white"/>
<ellipse cx="24.7188" cy="7.46203" rx="0.536078" ry="0.532163" fill="white"/>
<ellipse cx="4.34788" cy="4.26904" rx="0.536078" ry="0.532163" fill="white"/>
<ellipse cx="2.47159" cy="6.13156" rx="0.536078" ry="0.532163" fill="white"/>
<ellipse cx="16.4096" cy="25.2895" rx="0.536078" ry="0.532163" fill="white"/>
<ellipse cx="20.1622" cy="9.5907" rx="0.536078" ry="0.532163" fill="white"/>
<ellipse cx="6.76022" cy="9.0585" rx="0.536078" ry="0.532163" fill="white"/>
<ellipse cx="13.7292" cy="20.2339" rx="0.536078" ry="0.532163" fill="white"/>
<path fill-rule="evenodd" clip-rule="evenodd" d="M100.918 4.14422C98.38 4.90185 95.8258 6.99859 94.6069 9.32462C93.708 11.0402 93.6132 14.9743 94.42 17.1022C96.5061 22.6069 103.598 25.0194 108.957 22.0463C111.64 20.5579 111.927 20.035 110.853 18.5922C110.191 17.7036 109.917 17.6456 109.095 18.2217C105.17 20.9693 101.707 20.9107 98.8293 18.0472C97.3184 16.5438 97.0787 15.9354 97.0787 13.6078C97.0787 11.4939 97.3782 10.5553 98.4646 9.26878C100.789 6.51481 104.848 6.06324 108.248 8.17986C109.182 8.76083 109.529 8.76084 110.232 8.17933C111.589 7.05659 111.233 6.09224 109.063 5.00923C106.234 3.59707 103.663 3.32431 100.918 4.14422ZM163.769 3.51087C158.3 4.74046 154.686 9.64756 155.722 14.4349C157.135 20.9652 162.595 24.3909 168.706 22.5819C175.854 20.4653 178.321 11.8517 173.295 6.5564C170.766 3.8921 167.176 2.74412 163.769 3.51087ZM34.059 13.4961V23.1777H41.3305H48.602V21.5669V19.956H42.9464H37.2908V17.5645V15.1725L40.9265 15.0141C44.447 14.86 44.5677 14.8084 44.7325 13.3785L44.9033 11.9019H41.0968H37.2908V9.48571V7.06947H42.4433H47.5964L47.4257 5.59289L47.2555 4.1163L40.6572 3.96542L34.059 3.81454V13.4961ZM51.1966 4.11254C50.651 4.67472 51.8914 7.06947 52.7285 7.06947C53.2989 7.06947 53.4497 8.75117 53.4497 15.1236V23.1777H57.7237C62.4023 23.1777 64.3693 22.6456 66.2933 20.8597C68.3078 18.9901 69.238 16.6898 69.2838 13.4639C69.3183 11.0477 69.0393 10.0291 67.8537 8.24376C65.6895 4.98292 63.842 4.23979 57.2201 3.96649C54.1095 3.83816 51.3991 3.90421 51.1966 4.11254ZM73.0504 4.6135C72.8727 5.07581 72.8221 8.29423 72.9384 11.7656C73.1781 18.9241 73.9128 20.98 76.7546 22.4485C79.0874 23.6539 83.9227 23.6566 86.1951 22.4539C89.5487 20.6788 90.1077 18.9858 89.9483 11.0965L89.8072 4.1163H88.4606H87.1141L86.8447 11.0965C86.6966 14.9357 86.3901 18.3613 86.1639 18.7087C85.4949 19.7364 82.0649 20.6251 80.1507 20.2675C76.8731 19.6543 76.3732 18.5074 76.0721 10.9086C75.8125 4.36275 75.7587 4.10985 74.5888 3.94447C73.8611 3.84138 73.2443 4.10985 73.0504 4.6135ZM120.554 5.29113C120.784 6.45093 119.971 8.5815 117.046 14.4782C114.952 18.7007 113.238 22.3857 113.238 22.6665C113.238 23.7361 116.334 23.1836 117.143 21.9696C117.861 20.8908 118.473 20.7416 122.851 20.5741C127.687 20.3899 127.764 20.4065 128.393 21.7822C128.862 22.8077 129.436 23.1777 130.56 23.1777C131.401 23.1777 132.09 22.9608 132.09 22.6955C132.09 22.4303 130.178 18.1417 127.842 13.1648C123.779 4.50987 123.522 4.10879 121.924 3.94878C120.353 3.79092 120.271 3.87146 120.554 5.29113ZM170.363 8.16347C172.362 9.661 172.912 11.2546 172.498 14.341C171.957 18.3568 167.713 20.9228 163.76 19.6223C161.274 18.804 158.652 15.7375 158.652 13.6467C158.652 7.48584 165.3 4.3732 170.363 8.16347ZM64.3575 9.10394C66.4091 11.1492 66.8233 14.1571 65.4083 16.7344C64.1129 19.0948 62.4944 19.9383 59.24 19.948L56.6815 19.956V13.4376V6.91913L59.7393 7.23378C62.1496 7.48184 63.1273 7.87757 64.3575 9.10394ZM124.576 13.567C125.489 15.369 126.159 16.9105 126.065 16.9927C125.972 17.0754 124.415 17.2451 122.607 17.3702L119.318 17.5973L120.936 13.9439C121.827 11.9352 122.636 10.2911 122.736 10.2911C122.836 10.2911 123.664 11.7656 124.576 13.567Z" fill="white"/>
<path fill-rule="evenodd" clip-rule="evenodd" d="M133.76 3.88401C133.215 4.44619 134.455 6.84095 135.292 6.84095C135.863 6.84095 136.014 8.52265 136.014 14.8951V22.9492H140.288C144.966 22.9492 146.933 22.4171 148.857 20.6312C150.872 18.7616 151.802 16.4613 151.848 13.2354C151.882 10.8191 151.603 9.80057 150.418 8.01524C148.253 4.7544 146.406 4.01127 139.784 3.73796C136.673 3.60964 133.963 3.67568 133.76 3.88401ZM147.972 16.5059C149.387 13.9286 148.973 10.9206 146.921 8.87542C145.691 7.64905 144.714 7.25332 142.303 7.00526L139.245 6.69061V13.2354V19.7275L141.804 19.7195C145.058 19.7098 146.677 18.8663 147.972 16.5059Z" fill="white"/>
</svg>
