<svg width="176" height="26" viewBox="0 0 176 26" fill="none" xmlns="http://www.w3.org/2000/svg">
<ellipse cx="13.5952" cy="0.931286" rx="0.938136" ry="0.931286" fill="#383838"/>
<ellipse cx="23.7807" cy="17.4284" rx="0.938136" ry="0.931286" fill="#383838"/>
<ellipse cx="3.1417" cy="18.2266" rx="0.938136" ry="0.931286" fill="#383838"/>
<ellipse cx="16.2756" cy="0.931286" rx="0.938136" ry="0.931286" fill="#383838"/>
<ellipse cx="22.7085" cy="20.0892" rx="0.938136" ry="0.931286" fill="#383838"/>
<ellipse cx="1.8015" cy="15.8319" rx="0.938136" ry="0.931286" fill="#383838"/>
<ellipse cx="14.8014" cy="3.45904" rx="0.804117" ry="0.798245" fill="#383838"/>
<ellipse cx="20.9663" cy="17.5614" rx="0.804117" ry="0.798245" fill="#383838"/>
<ellipse cx="4.34788" cy="15.6988" rx="0.804117" ry="0.798245" fill="#383838"/>
<ellipse cx="18.956" cy="1.7296" rx="0.670097" ry="0.665204" fill="#383838"/>
<ellipse cx="0.997389" cy="13.1711" rx="0.670097" ry="0.665204" fill="#383838"/>
<ellipse cx="17.3478" cy="3.85823" rx="0.670097" ry="0.665204" fill="#383838"/>
<ellipse cx="3.67777" cy="13.4372" rx="0.670097" ry="0.665204" fill="#383838"/>
<ellipse cx="21.1003" cy="2.79387" rx="0.670097" ry="0.665204" fill="#383838"/>
<ellipse cx="0.729355" cy="10.5102" rx="0.670097" ry="0.665204" fill="#383838"/>
<ellipse cx="21.1003" cy="21.9518" rx="0.670097" ry="0.665204" fill="#383838"/>
<ellipse cx="19.6261" cy="5.05557" rx="0.536078" ry="0.532163" fill="#383838"/>
<ellipse cx="3.27572" cy="10.9094" rx="0.536078" ry="0.532163" fill="#383838"/>
<ellipse cx="19.6261" cy="19.6901" rx="0.536078" ry="0.532163" fill="#383838"/>
<ellipse cx="16.4096" cy="6.11993" rx="0.536078" ry="0.532163" fill="#383838"/>
<ellipse cx="5.95611" cy="13.038" rx="0.536078" ry="0.532163" fill="#383838"/>
<ellipse cx="18.0178" cy="17.8275" rx="0.536078" ry="0.532163" fill="#383838"/>
<ellipse cx="19.09" cy="7.18423" rx="0.536078" ry="0.532163" fill="#383838"/>
<ellipse cx="5.68807" cy="10.3772" rx="0.536078" ry="0.532163" fill="#383838"/>
<ellipse cx="15.3375" cy="22.3509" rx="0.536078" ry="0.532163" fill="#383838"/>
<ellipse cx="16.1416" cy="19.9561" rx="0.536078" ry="0.532163" fill="#383838"/>
<ellipse cx="21.5024" cy="6.65207" rx="0.536078" ry="0.532163" fill="#383838"/>
<ellipse cx="4.07984" cy="8.51465" rx="0.536078" ry="0.532163" fill="#383838"/>
<ellipse cx="13.7292" cy="25.0117" rx="0.536078" ry="0.532163" fill="#383838"/>
<ellipse cx="17.7498" cy="21.2865" rx="0.536078" ry="0.532163" fill="#383838"/>
<ellipse cx="23.1106" cy="4.78946" rx="0.536078" ry="0.532163" fill="#383838"/>
<ellipse cx="1.39944" cy="7.98248" rx="0.536078" ry="0.532163" fill="#383838"/>
<ellipse cx="18.822" cy="23.4152" rx="0.536078" ry="0.532163" fill="#383838"/>
<ellipse cx="21.9044" cy="16.0979" rx="0.134019" ry="0.133041" fill="#383838"/>
<ellipse cx="11.987" cy="3.32606" rx="0.134019" ry="0.133041" fill="#383838"/>
<ellipse cx="6.6262" cy="18.2266" rx="0.134019" ry="0.133041" fill="#383838"/>
<ellipse cx="25.2549" cy="14.6345" rx="0.268039" ry="0.266082" fill="#383838"/>
<ellipse cx="10.7808" cy="5.85385" rx="0.268039" ry="0.266082" fill="#383838"/>
<ellipse cx="11.5849" cy="0.798278" rx="0.268039" ry="0.266082" fill="#383838"/>
<ellipse cx="8.10041" cy="20.2222" rx="0.268039" ry="0.266082" fill="#383838"/>
<ellipse cx="22.8426" cy="13.8363" rx="0.268039" ry="0.266082" fill="#383838"/>
<ellipse cx="9.44062" cy="3.45911" rx="0.268039" ry="0.266082" fill="#383838"/>
<ellipse cx="4.88395" cy="19.9562" rx="0.268039" ry="0.266082" fill="#383838"/>
<ellipse cx="20.1622" cy="13.5702" rx="0.268039" ry="0.266082" fill="#383838"/>
<ellipse cx="9.44062" cy="18.0936" rx="0.268039" ry="0.266082" fill="#383838"/>
<ellipse cx="20.5642" cy="11.3085" rx="0.402058" ry="0.399123" fill="#383838"/>
<ellipse cx="8.50248" cy="6.78514" rx="0.402058" ry="0.399123" fill="#383838"/>
<ellipse cx="7.16228" cy="4.65642" rx="0.402058" ry="0.399123" fill="#383838"/>
<ellipse cx="8.50248" cy="23.5482" rx="0.402058" ry="0.399123" fill="#383838"/>
<ellipse cx="11.4509" cy="19.291" rx="0.402058" ry="0.399123" fill="#383838"/>
<ellipse cx="23.2446" cy="11.3085" rx="0.402058" ry="0.399123" fill="#383838"/>
<ellipse cx="6.6262" cy="1.99562" rx="0.402058" ry="0.399123" fill="#383838"/>
<ellipse cx="10.1107" cy="21.4196" rx="0.402058" ry="0.399123" fill="#383838"/>
<ellipse cx="25.657" cy="12.1068" rx="0.402058" ry="0.399123" fill="#383838"/>
<ellipse cx="8.77052" cy="1.19737" rx="0.402058" ry="0.399123" fill="#383838"/>
<ellipse cx="6.6262" cy="22.2178" rx="0.402058" ry="0.399123" fill="#383838"/>
<ellipse cx="25.5229" cy="9.31286" rx="0.536078" ry="0.532163" fill="#383838"/>
<ellipse cx="12.6571" cy="22.0848" rx="0.536078" ry="0.532163" fill="#383838"/>
<ellipse cx="22.8426" cy="8.78073" rx="0.536078" ry="0.532163" fill="#383838"/>
<ellipse cx="5.15199" cy="6.38598" rx="0.536078" ry="0.532163" fill="#383838"/>
<ellipse cx="11.0489" cy="24.4795" rx="0.536078" ry="0.532163" fill="#383838"/>
<ellipse cx="24.7188" cy="6.91818" rx="0.536078" ry="0.532163" fill="#383838"/>
<ellipse cx="4.34788" cy="3.72519" rx="0.536078" ry="0.532163" fill="#383838"/>
<ellipse cx="2.47159" cy="5.58771" rx="0.536078" ry="0.532163" fill="#383838"/>
<ellipse cx="16.4096" cy="24.7456" rx="0.536078" ry="0.532163" fill="#383838"/>
<ellipse cx="20.1622" cy="9.04684" rx="0.536078" ry="0.532163" fill="#383838"/>
<ellipse cx="6.76022" cy="8.51465" rx="0.536078" ry="0.532163" fill="#383838"/>
<ellipse cx="13.7292" cy="19.6901" rx="0.536078" ry="0.532163" fill="#383838"/>
<path fill-rule="evenodd" clip-rule="evenodd" d="M100.918 3.60037C98.38 4.35799 95.8258 6.45474 94.6069 8.78077C93.708 10.4963 93.6132 14.4305 94.42 16.5584C96.5061 22.0631 103.598 24.4755 108.957 21.5025C111.64 20.0141 111.927 19.4911 110.853 18.0484C110.191 17.1597 109.917 17.1018 109.095 17.6779C105.17 20.4254 101.707 20.3669 98.8293 17.5034C97.3184 16 97.0787 15.3916 97.0787 13.0639C97.0787 10.95 97.3782 10.0114 98.4646 8.72492C100.789 5.97095 104.848 5.51938 108.248 7.63601C109.182 8.21698 109.529 8.21698 110.232 7.63548C111.589 6.51273 111.233 5.54839 109.063 4.46538C106.234 3.05322 103.663 2.78046 100.918 3.60037ZM163.769 2.96701C158.3 4.19661 154.686 9.10371 155.722 13.8911C157.135 20.4214 162.595 23.847 168.706 22.0381C175.854 19.9214 178.321 11.3079 173.295 6.01255C170.766 3.34824 167.176 2.20026 163.769 2.96701ZM34.059 12.9523V22.6338H41.3305H48.602V21.023V19.4122H42.9464H37.2908V17.0207V14.6286L40.9265 14.4702C44.447 14.3161 44.5677 14.2645 44.7325 12.8347L44.9033 11.3581H41.0968H37.2908V8.94185V6.52562H42.4433H47.5964L47.4257 5.04904L47.2555 3.57245L40.6572 3.42156L34.059 3.27069V12.9523ZM51.1966 3.56868C50.651 4.13086 51.8914 6.52562 52.7285 6.52562C53.2989 6.52562 53.4497 8.20732 53.4497 14.5797V22.6338H57.7237C62.4023 22.6338 64.3693 22.1017 66.2933 20.3159C68.3078 18.4462 69.238 16.146 69.2838 12.92C69.3183 10.5038 69.0393 9.48524 67.8537 7.69991C65.6895 4.43906 63.842 3.69594 57.2201 3.42264C54.1095 3.29431 51.3991 3.36035 51.1966 3.56868ZM73.0504 4.06965C72.8727 4.53196 72.8221 7.75038 72.9384 11.2217C73.1781 18.3802 73.9128 20.4361 76.7546 21.9047C79.0874 23.1101 83.9227 23.1128 86.1951 21.91C89.5487 20.1349 90.1077 18.4419 89.9483 10.5527L89.8072 3.57245H88.4606H87.1141L86.8447 10.5527C86.6966 14.3918 86.3901 17.8175 86.1639 18.1649C85.4949 19.1926 82.0649 20.0812 80.1507 19.7236C76.8731 19.1104 76.3732 17.9635 76.0721 10.3647C75.8125 3.81889 75.7587 3.566 74.5888 3.40062C73.8611 3.29753 73.2443 3.566 73.0504 4.06965ZM120.554 4.74728C120.784 5.90707 119.971 8.03765 117.046 13.9343C114.952 18.1568 113.238 21.8418 113.238 22.1227C113.238 23.1922 116.334 22.6397 117.143 21.4257C117.861 20.347 118.473 20.1977 122.851 20.0302C127.687 19.846 127.764 19.8627 128.393 21.2383C128.862 22.2639 129.436 22.6338 130.56 22.6338C131.401 22.6338 132.09 22.4169 132.09 22.1517C132.09 21.8864 130.178 17.5979 127.842 12.621C123.779 3.96602 123.522 3.56493 121.924 3.40492C120.353 3.24706 120.271 3.32761 120.554 4.74728ZM170.363 7.61961C172.362 9.11714 172.912 10.7108 172.498 13.7971C171.957 17.8129 167.713 20.3789 163.76 19.0785C161.274 18.2602 158.652 15.1937 158.652 13.1028C158.652 6.94198 165.3 3.82935 170.363 7.61961ZM64.3575 8.56009C66.4091 10.6053 66.8233 13.6132 65.4083 16.1906C64.1129 18.5509 62.4944 19.3945 59.24 19.4041L56.6815 19.4122V12.8937V6.37528L59.7393 6.68992C62.1496 6.93799 63.1273 7.33372 64.3575 8.56009ZM124.576 13.0231C125.489 14.8251 126.159 16.3667 126.065 16.4488C125.972 16.5315 124.415 16.7012 122.607 16.8263L119.318 17.0534L120.936 13.4001C121.827 11.3914 122.636 9.74727 122.736 9.74727C122.836 9.74727 123.664 11.2217 124.576 13.0231Z" fill="#383838"/>
<path fill-rule="evenodd" clip-rule="evenodd" d="M133.76 3.34016C133.215 3.90234 134.455 6.2971 135.292 6.2971C135.863 6.2971 136.014 7.9788 136.014 14.3512V22.4053H140.288C144.966 22.4053 146.933 21.8732 148.857 20.0874C150.872 18.2177 151.802 15.9175 151.848 12.6915C151.882 10.2753 151.603 9.25672 150.418 7.47139C148.253 4.21054 146.406 3.46741 139.784 3.19411C136.673 3.06578 133.963 3.13183 133.76 3.34016ZM147.972 15.962C149.387 13.3847 148.973 10.3768 146.921 8.33157C145.691 7.1052 144.714 6.70947 142.303 6.4614L139.245 6.14675V12.6915V19.1837L141.804 19.1756C145.058 19.166 146.677 18.3224 147.972 15.962Z" fill="#383838"/>
</svg>
