<svg width="27" height="27" viewBox="0 0 27 27" fill="none" xmlns="http://www.w3.org/2000/svg">
<g id="Group 2">
<ellipse id="Ellipse 3" cx="13.5952" cy="1.47514" rx="0.938136" ry="0.931286" fill="white"/>
<ellipse id="Ellipse 25" cx="23.7807" cy="17.9722" rx="0.938136" ry="0.931286" fill="white"/>
<ellipse id="Ellipse 48" cx="3.1417" cy="18.7705" rx="0.938136" ry="0.931286" fill="white"/>
<ellipse id="Ellipse 4" cx="16.2756" cy="1.47514" rx="0.938136" ry="0.931286" fill="white"/>
<ellipse id="Ellipse 26" cx="22.7085" cy="20.633" rx="0.938136" ry="0.931286" fill="white"/>
<ellipse id="Ellipse 50" cx="1.8015" cy="16.3757" rx="0.938136" ry="0.931286" fill="white"/>
<ellipse id="Ellipse 5" cx="14.8014" cy="4.0029" rx="0.804117" ry="0.798245" fill="white"/>
<ellipse id="Ellipse 27" cx="20.9663" cy="18.1053" rx="0.804117" ry="0.798245" fill="white"/>
<ellipse id="Ellipse 49" cx="4.34788" cy="16.2427" rx="0.804117" ry="0.798245" fill="white"/>
<ellipse id="Ellipse 6" cx="18.956" cy="2.27345" rx="0.670097" ry="0.665204" fill="white"/>
<ellipse id="Ellipse 65" cx="0.997389" cy="13.7149" rx="0.670097" ry="0.665204" fill="white"/>
<ellipse id="Ellipse 7" cx="17.3478" cy="4.40208" rx="0.670097" ry="0.665204" fill="white"/>
<ellipse id="Ellipse 61" cx="3.67777" cy="13.981" rx="0.670097" ry="0.665204" fill="white"/>
<ellipse id="Ellipse 8" cx="21.1003" cy="3.33772" rx="0.670097" ry="0.665204" fill="white"/>
<ellipse id="Ellipse 66" cx="0.729355" cy="11.0541" rx="0.670097" ry="0.665204" fill="white"/>
<ellipse id="Ellipse 28" cx="21.1003" cy="22.4956" rx="0.670097" ry="0.665204" fill="white"/>
<ellipse id="Ellipse 9" cx="19.6261" cy="5.59942" rx="0.536078" ry="0.532163" fill="white"/>
<ellipse id="Ellipse 62" cx="3.27572" cy="11.4532" rx="0.536078" ry="0.532163" fill="white"/>
<ellipse id="Ellipse 30" cx="19.6261" cy="20.2339" rx="0.536078" ry="0.532163" fill="white"/>
<ellipse id="Ellipse 10" cx="16.4096" cy="6.66379" rx="0.536078" ry="0.532163" fill="white"/>
<ellipse id="Ellipse 60" cx="5.95611" cy="13.5819" rx="0.536078" ry="0.532163" fill="white"/>
<ellipse id="Ellipse 29" cx="18.0178" cy="18.3713" rx="0.536078" ry="0.532163" fill="white"/>
<ellipse id="Ellipse 11" cx="19.09" cy="7.72809" rx="0.536078" ry="0.532163" fill="white"/>
<ellipse id="Ellipse 59" cx="5.68807" cy="10.921" rx="0.536078" ry="0.532163" fill="white"/>
<ellipse id="Ellipse 45" cx="15.3375" cy="22.8947" rx="0.536078" ry="0.532163" fill="white"/>
<ellipse id="Ellipse 31" cx="16.1416" cy="20.5" rx="0.536078" ry="0.532163" fill="white"/>
<ellipse id="Ellipse 24" cx="21.5024" cy="7.19592" rx="0.536078" ry="0.532163" fill="white"/>
<ellipse id="Ellipse 63" cx="4.07984" cy="9.0585" rx="0.536078" ry="0.532163" fill="white"/>
<ellipse id="Ellipse 47" cx="13.7292" cy="25.5556" rx="0.536078" ry="0.532163" fill="white"/>
<ellipse id="Ellipse 32" cx="17.7498" cy="21.8304" rx="0.536078" ry="0.532163" fill="white"/>
<ellipse id="Ellipse 12" cx="23.1106" cy="5.33331" rx="0.536078" ry="0.532163" fill="white"/>
<ellipse id="Ellipse 67" cx="1.39944" cy="8.52633" rx="0.536078" ry="0.532163" fill="white"/>
<ellipse id="Ellipse 33" cx="18.822" cy="23.9591" rx="0.536078" ry="0.532163" fill="white"/>
<ellipse id="Ellipse 13" cx="21.9044" cy="16.6418" rx="0.134019" ry="0.133041" fill="white"/>
<ellipse id="Ellipse 51" cx="11.987" cy="3.86992" rx="0.134019" ry="0.133041" fill="white"/>
<ellipse id="Ellipse 37" cx="6.6262" cy="18.7705" rx="0.134019" ry="0.133041" fill="white"/>
<ellipse id="Ellipse 14" cx="25.2549" cy="15.1784" rx="0.268039" ry="0.266082" fill="white"/>
<ellipse id="Ellipse 54" cx="10.7808" cy="6.3977" rx="0.268039" ry="0.266082" fill="white"/>
<ellipse id="Ellipse 52" cx="11.5849" cy="1.34213" rx="0.268039" ry="0.266082" fill="white"/>
<ellipse id="Ellipse 39" cx="8.10041" cy="20.7661" rx="0.268039" ry="0.266082" fill="white"/>
<ellipse id="Ellipse 15" cx="22.8426" cy="14.3802" rx="0.268039" ry="0.266082" fill="white"/>
<ellipse id="Ellipse 53" cx="9.44062" cy="4.00296" rx="0.268039" ry="0.266082" fill="white"/>
<ellipse id="Ellipse 38" cx="4.88395" cy="20.5" rx="0.268039" ry="0.266082" fill="white"/>
<ellipse id="Ellipse 16" cx="20.1622" cy="14.114" rx="0.268039" ry="0.266082" fill="white"/>
<ellipse id="Ellipse 36" cx="9.44062" cy="18.6374" rx="0.268039" ry="0.266082" fill="white"/>
<ellipse id="Ellipse 17" cx="20.5642" cy="11.8524" rx="0.402058" ry="0.399123" fill="white"/>
<ellipse id="Ellipse 70" cx="8.50248" cy="7.32899" rx="0.402058" ry="0.399123" fill="white"/>
<ellipse id="Ellipse 57" cx="7.16228" cy="5.20027" rx="0.402058" ry="0.399123" fill="white"/>
<ellipse id="Ellipse 42" cx="8.50248" cy="24.0921" rx="0.402058" ry="0.399123" fill="white"/>
<ellipse id="Ellipse 35" cx="11.4509" cy="19.8348" rx="0.402058" ry="0.399123" fill="white"/>
<ellipse id="Ellipse 18" cx="23.2446" cy="11.8524" rx="0.402058" ry="0.399123" fill="white"/>
<ellipse id="Ellipse 56" cx="6.6262" cy="2.53947" rx="0.402058" ry="0.399123" fill="white"/>
<ellipse id="Ellipse 41" cx="10.1107" cy="21.9635" rx="0.402058" ry="0.399123" fill="white"/>
<ellipse id="Ellipse 19" cx="25.657" cy="12.6506" rx="0.402058" ry="0.399123" fill="white"/>
<ellipse id="Ellipse 55" cx="8.77052" cy="1.74122" rx="0.402058" ry="0.399123" fill="white"/>
<ellipse id="Ellipse 40" cx="6.6262" cy="22.7617" rx="0.402058" ry="0.399123" fill="white"/>
<ellipse id="Ellipse 20" cx="25.5229" cy="9.85672" rx="0.536078" ry="0.532163" fill="white"/>
<ellipse id="Ellipse 43" cx="12.6571" cy="22.6287" rx="0.536078" ry="0.532163" fill="white"/>
<ellipse id="Ellipse 21" cx="22.8426" cy="9.32458" rx="0.536078" ry="0.532163" fill="white"/>
<ellipse id="Ellipse 64" cx="5.15199" cy="6.92984" rx="0.536078" ry="0.532163" fill="white"/>
<ellipse id="Ellipse 44" cx="11.0489" cy="25.0234" rx="0.536078" ry="0.532163" fill="white"/>
<ellipse id="Ellipse 22" cx="24.7188" cy="7.46203" rx="0.536078" ry="0.532163" fill="white"/>
<ellipse id="Ellipse 69" cx="4.34788" cy="4.26904" rx="0.536078" ry="0.532163" fill="white"/>
<ellipse id="Ellipse 68" cx="2.47159" cy="6.13156" rx="0.536078" ry="0.532163" fill="white"/>
<ellipse id="Ellipse 46" cx="16.4096" cy="25.2895" rx="0.536078" ry="0.532163" fill="white"/>
<ellipse id="Ellipse 23" cx="20.1622" cy="9.5907" rx="0.536078" ry="0.532163" fill="white"/>
<ellipse id="Ellipse 58" cx="6.76022" cy="9.0585" rx="0.536078" ry="0.532163" fill="white"/>
<ellipse id="Ellipse 34" cx="13.7292" cy="20.2339" rx="0.536078" ry="0.532163" fill="white"/>
</g>
</svg>
